<?xml version="1.0" encoding="utf-8"?>
<!-- Generator: Adobe Illustrator 17.0.2, SVG Export Plug-In . SVG Version: 6.00 Build 0)  -->
<!DOCTYPE svg PUBLIC "-//W3C//DTD SVG 1.1//EN" "http://www.w3.org/Graphics/SVG/1.1/DTD/svg11.dtd">
<svg version="1.1" id="Layer_1" xmlns="http://www.w3.org/2000/svg" xmlns:xlink="http://www.w3.org/1999/xlink" x="0px" y="0px"
	 width="792px" height="612px" viewBox="0 0 792 612" enable-background="new 0 0 792 612" xml:space="preserve">
<path fill="#EDCF21" d="M494.243,275.816c7.79,35.567,0.944,78.248-39.895,106.939c-40.839,28.691-89.468,14.227-110.242,0.948
	c-20.774-13.279-65.154-65.681-37.062-124.486c28.092-58.805,88.996-56.434,88.996-56.434
	C447.738,201.598,486.453,240.248,494.243,275.816z M346.231,283.878c0,0,14.872-5.928,50.282-5.691s52.642,4.979,52.642,4.979
	s7.318,0.474,9.206,1.186c1.888,0.711,12.275,4.031,14.636,2.845c2.361-1.186,8.026-4.505,4.013-12.804
	s-13.456-20.866-15.816-25.609c-2.361-4.742-22.662-29.877-65.39-30.351c-42.728-0.474-60.668,27.268-60.668,27.268
	s-6.846,11.856-9.915,16.361c-3.069,4.505-10.151,15.175-8.498,18.969s3.305,6.876,10.151,5.928
	C333.719,286.012,342.926,283.64,346.231,283.878z M324.513,304.032c0,0-13.456-1.897-9.915,13.041s18.177,41.495,33.285,50.743
	c15.108,9.248,28.328,17.31,34.465,13.516c6.138-3.794,5.902-15.175,5.666-21.34c-0.236-6.165,1.416-13.753,1.416-15.887
	c0-2.134,0.944-7.588-5.902-15.175c-6.846-7.588-19.357-23.712-19.357-23.712s-5.193-4.742-13.22-3.32
	C342.926,303.321,330.178,304.744,324.513,304.032z M443.53,301.898c-8.026-1.423-13.22,3.32-13.22,3.32
	s-12.511,16.124-19.357,23.712c-6.846,7.588-5.902,13.041-5.902,15.175c0,2.134,1.652,9.722,1.416,15.887
	c-0.236,6.165-0.472,17.547,5.666,21.34c6.138,3.794,19.357-4.268,34.465-13.516c15.108-9.248,29.744-35.805,33.285-50.743
	s-9.915-13.041-9.915-13.041C464.303,304.744,451.556,303.321,443.53,301.898z"/>
<polygon fill="#C5A92E" points="377.433,291.569 419.099,291.569 398.975,323.228 "/>
<text transform="matrix(1 0 0 1 389.1609 303.1227)" fill="#FFFFFF" font-family="'HelveticaNeue-Medium'" font-size="9.4177">BSD</text>
</svg>
