<?xml version="1.0" encoding="utf-8"?>
<!-- Generator: Adobe Illustrator 17.0.2, SVG Export Plug-In . SVG Version: 6.00 Build 0)  -->
<!DOCTYPE svg PUBLIC "-//W3C//DTD SVG 1.1//EN" "http://www.w3.org/Graphics/SVG/1.1/DTD/svg11.dtd">
<svg version="1.1" id="Layer_1" xmlns="http://www.w3.org/2000/svg" xmlns:xlink="http://www.w3.org/1999/xlink" x="0px" y="0px"
	 width="792px" height="612px" viewBox="0 0 792 612" enable-background="new 0 0 792 612" xml:space="preserve">
<g>
	<path fill="#EDCE20" d="M505,303.5c0,53.848-43.652,97.5-97.5,97.5S310,357.348,310,303.5s43.652-97.5,97.5-97.5
		S505,249.652,505,303.5z M407.5,234.6c-38.77,0-70.2,31.43-70.2,70.2s31.43,70.2,70.2,70.2s70.2-31.43,70.2-70.2
		S446.27,234.6,407.5,234.6z"/>
	<polygon fill="#EDCE20" points="356.281,354.831 392.024,303.352 407.199,302.79 	"/>
	<polygon fill="#FFFFFF" points="391.912,303.464 354.258,252.322 406.299,303.239 	"/>
	<polygon fill="#EDCE20" points="354.258,252.322 405.737,288.065 406.299,303.239 	"/>
	<polygon fill="#EDCE20" points="457.048,251.142 421.305,302.621 406.299,303.239 	"/>
	<polygon fill="#EDCE20" points="458.06,355 406.805,319.706 406.243,303.183 	"/>
	<polygon fill="#FFFFFF" points="405.737,288.065 457.048,251.142 406.299,303.239 	"/>
	<polygon fill="#FFFFFF" points="421.305,302.621 458.06,355 406.299,303.239 	"/>
	<polygon fill="#FFFFFF" points="406.805,319.706 356.281,354.831 406.299,303.577 	"/>
	<polygon fill="#EDCE20" points="407.25,417.5 389.75,320.5 406,303 	"/>
	<polygon fill="#FFFFFF" points="389.75,320.75 291,305.75 405.5,304.5 	"/>
	<polygon fill="#EDCE20" points="291,305.75 388,288.25 405.5,304.5 	"/>
	<polygon fill="#EDCE20" points="404,190.125 421.5,287.125 405.5,304.5 	"/>
	<polygon fill="#EDCE20" points="520.625,304.5 424.375,322.25 405.375,304.5 	"/>
	<polygon fill="#FFFFFF" points="388,288.25 404,190.125 405.5,304.5 	"/>
	<polygon fill="#FFFFFF" points="421.5,287.125 520.625,304.5 405.5,304.5 	"/>
	<polygon fill="#FFFFFF" points="424.375,322.25 407.25,417.5 405.875,304.875 	"/>
</g>
</svg>
